<svg height="8.4666mm" style="shape-rendering:geometricPrecision; text-rendering:geometricPrecision; image-rendering:optimizeQuality; fill-rule:evenodd; clip-rule:evenodd" version="1.1" viewBox="0 0 846.66 846.66" width="8.4666mm" xmlSpace="preserve" xmlns="http://www.w3.org/2000/svg" xmlnsXlink="http://www.w3.org/1999/xlink"><defs><style type="text/css">
   <!-- <![CDATA[
    .fil0 {fill:black;fill-rule:nonzero}
   ]]> -->
  </style></defs><g id="Layer_x0020_1"><path style="fill:#f8f8ff;fill-rule:nonzero;" class="fil0" d="M162.31 96.74l-76.97 68.23 76.97 0 0 -68.23zm98.27 279.06l-118.09 0c-27.16,0 -27.16,-41.29 0,-41.29l118.09 0 0 -103.32c0,-11.4 9.25,-20.65 20.65,-20.65l263.54 0 0 -138.95 -341.17 0 0 114.03c0,11.4 -9.24,20.64 -20.64,20.64l-131.26 0 0 271.32c0,64.44 52.81,117.25 117.25,117.25l91.63 0 0 -82.68 -118.09 0c-27.16,0 -27.16,-41.29 0,-41.29l118.09 0 0 -26.88 -118.09 0c-27.16,0 -27.16,-41.3 0,-41.3l118.09 0 0 -26.88zm41.29 312.66l291.98 0c27.15,0 27.15,41.29 0,41.29l-291.98 0 0 45.32 375.82 0c64.45,0 117.25,-52.81 117.25,-117.26l0 -271.31 -131.26 0c-11.4,0 -20.64,-9.24 -20.64,-20.64l0 -114.03 -341.17 0c0,145.54 0,291.09 0,436.63zm-291.38 -502.84c0,-6.15 2.56,-11.42 6.94,-15.41l150.55 -133.47c3.76,-3.96 9.08,-6.44 14.98,-6.44l382.45 0c11.4,0 20.65,9.25 20.65,20.65l0 159.59 77.62 0c5.9,0 11.22,2.47 14.98,6.44l150.56 133.47c4.43,4.03 6.93,9.38 6.93,15.41l0.08 291.95c0,87.25 -71.3,158.55 -158.54,158.55l-396.46 0c-11.4,0 -20.65,-9.25 -20.65,-20.65l0 -159.59 -91.63 0c-87.24,0 -158.54,-71.3 -158.54,-158.54l0.08 -291.96zm378.15 450.22c-27.15,0 -27.15,-41.29 0,-41.29l319.53 0c27.16,0 27.16,41.29 0,41.29l-319.53 0zm0 -65.07c-27.15,0 -27.15,-41.29 0,-41.29l319.53 0c27.16,0 27.16,41.29 0,41.29l-319.53 0zm80.04 -281.6c45.67,0 82.7,37.04 82.7,82.71 0,10.65 -2.01,20.83 -5.68,30.19 22.77,21.31 35.74,51.03 35.74,82.28 0,27.16 -41.29,27.16 -41.29,0 0,-18.14 -6.68,-35.28 -18.98,-48.56 -14.28,11.74 -32.56,18.79 -52.49,18.79 -19.92,0 -38.21,-7.05 -52.49,-18.79 -12.29,13.29 -18.98,30.41 -18.98,48.56 0,27.16 -41.29,27.16 -41.29,0 0,-31.25 12.97,-60.97 35.74,-82.28 -3.67,-9.36 -5.68,-19.54 -5.68,-30.19 0,-45.67 37.03,-82.71 82.7,-82.71zm0 41.29c-22.87,0 -41.41,18.55 -41.41,41.42 0,22.87 18.54,41.41 41.41,41.41 22.87,0 41.41,-18.54 41.41,-41.41 0,-22.87 -18.54,-41.42 -41.41,-41.42zm292.62 14.75l-76.97 -68.23 0 68.23 76.97 0z"/></g></svg>