<svg height="512px"  version="1.1" style="fill:#f8f8ff;fill-rule:nonzero;"  viewBox="0 0 512 512" width="512px" xmlSpace="preserve" xmlns="http://www.w3.org/2000/svg" xmlnsXlink="http://www.w3.org/1999/xlink"><g id="_x36_3_x2C__expertise_x2C__checklist_x2C__check_x2C__list_x2C__document"><g><path  d="M470.271,140.291h-32.287v16.094h32.287V140.291z M470.271,162.57h-13.052    v126.711c0,1.71-1.383,3.093-3.092,3.093s-3.092-1.383-3.092-3.093V162.57h-13.052c0,115.723,0,117.533,0,169.484l16.144,34.426    l16.144-34.426V162.57z M470.271,140.291v-17.15c0-4.426-1.811-8.474-4.727-11.391c-2.941-2.941-6.967-4.753-11.417-4.753    c-4.426,0-8.476,1.812-11.416,4.753l-0.127,0.125c-2.842,2.918-4.601,6.891-4.601,11.266v17.15H470.271z M310.519,31.357h-63.192    c0,6.086,0,22.557,0,28.643h63.192C310.519,53.914,310.519,37.443,310.519,31.357z M207.571,367.662h-25.248v25.271h25.248    V367.662z M179.231,361.476h31.431c1.709,0,3.092,1.408,3.092,3.093v31.433c0,1.71-1.383,3.093-3.092,3.093h-31.431    c-1.712,0-3.095-1.383-3.095-3.093v-31.433C176.136,362.884,177.519,361.476,179.231,361.476z M207.571,312.793h-25.248v25.271    h25.248V312.793z M179.231,306.607h31.431c1.709,0,3.092,1.408,3.092,3.092v31.434c0,1.71-1.383,3.093-3.092,3.093h-31.431    c-1.712,0-3.095-1.383-3.095-3.093v-31.434C176.136,308.016,177.519,306.607,179.231,306.607z M207.571,257.924h-25.248v25.246    h25.248V257.924z M179.231,251.738h31.431c1.709,0,3.092,1.408,3.092,3.094v31.432c0,1.709-1.383,3.094-3.092,3.094h-31.431    c-1.712,0-3.095-1.385-3.095-3.094v-31.432C176.136,253.146,177.519,251.738,179.231,251.738z M207.571,203.056h-25.248v25.271    h25.248V203.056z M179.231,196.869h31.431c1.709,0,3.092,1.383,3.092,3.093v31.433c0,1.711-1.383,3.094-3.092,3.094h-31.431    c-1.712,0-3.095-1.383-3.095-3.094v-31.433C176.136,198.252,177.519,196.869,179.231,196.869z M207.571,148.187h-25.248v25.246    h25.248V148.187z M179.231,142.001h31.431c1.709,0,3.092,1.408,3.092,3.093v31.433c0,1.71-1.383,3.093-3.092,3.093h-31.431    c-1.712,0-3.095-1.383-3.095-3.093v-31.433C176.136,143.409,177.519,142.001,179.231,142.001z M207.571,93.318h-25.248v25.271    h25.248V93.318z M179.231,87.132h31.431c1.709,0,3.092,1.384,3.092,3.093v31.433c0,1.71-1.383,3.094-3.092,3.094h-31.431    c-1.712,0-3.095-1.384-3.095-3.094V90.225C176.136,88.516,177.519,87.132,179.231,87.132z M149.983,139.084v0.075V423.26l0,0    l-0.025,0.353l0,0v0.352l0,0v0.352l0,0l-0.024,0.327v0.025l-0.024,0.327v0.025l-0.025,0.326l0,0l-0.024,0.352l0,0l-0.028,0.327    v0.025l-0.049,0.326v0.026l-0.024,0.326l0,0l-0.049,0.327v0.025l-0.053,0.326l0,0l-0.049,0.327v0.025l-0.077,0.327l0,0    l-0.049,0.327v0.024l-0.074,0.302v0.025l-0.077,0.302v0.025c-1.13,5.205-3.773,9.882-7.391,13.503    c-0.656,0.679-1.358,1.282-2.063,1.887h267.981V53.939h-91.18v9.152c0,1.686-1.383,3.094-3.092,3.094h-69.355    c-1.685,0-3.092-1.408-3.092-3.094v-9.152h-91.156V139.084z M236.363,124.751c-1.713,0-3.096-1.384-3.096-3.094    s1.383-3.093,3.096-3.093h108.78c1.709,0,3.092,1.383,3.092,3.093s-1.383,3.094-3.092,3.094H236.363z M236.363,179.619    c-1.713,0-3.096-1.383-3.096-3.093s1.383-3.094,3.096-3.094h108.78c1.709,0,3.092,1.384,3.092,3.094s-1.383,3.093-3.092,3.093    H236.363z M236.363,234.488c-1.713,0-3.096-1.383-3.096-3.094c0-1.709,1.383-3.092,3.096-3.092h108.78    c1.709,0,3.092,1.383,3.092,3.092c0,1.711-1.383,3.094-3.092,3.094H236.363z M236.363,289.357c-1.713,0-3.096-1.385-3.096-3.094    s1.383-3.094,3.096-3.094h108.78c1.709,0,3.092,1.385,3.092,3.094s-1.383,3.094-3.092,3.094H236.363z M236.363,344.226    c-1.713,0-3.096-1.383-3.096-3.093c0-1.711,1.383-3.093,3.096-3.093h108.78c1.709,0,3.092,1.382,3.092,3.093    c0,1.71-1.383,3.093-3.092,3.093H236.363z M236.363,399.094c-1.713,0-3.096-1.383-3.096-3.093s1.383-3.093,3.096-3.093h108.78    c1.709,0,3.092,1.383,3.092,3.093s-1.383,3.093-3.092,3.093H236.363z M226.002,485.999c-1.712,0-3.095-1.383-3.095-3.067    c0-1.71,1.383-3.093,3.095-3.093h182.031c1.709,0,3.092,1.383,3.092,3.093c0,1.685-1.383,3.067-3.092,3.067H226.002z     M426.669,485.999c-1.713,0-3.096-1.383-3.096-3.067c0-1.71,1.383-3.093,3.096-3.093h22.756c1.709,0,3.092,1.383,3.092,3.093    c0,1.685-1.383,3.067-3.092,3.067H426.669z M44.825,485.597c-1.709,0-3.096-1.383-3.096-3.093c0-1.686,1.386-3.094,3.096-3.094    h86.225c1.709,0,3.092,1.408,3.092,3.094c0,1.71-1.383,3.093-3.092,3.093H44.825z M355.454,472.696    c-1.709,0-3.092-1.382-3.092-3.093c0-1.685,1.383-3.093,3.092-3.093h22.755c1.713,0,3.096,1.408,3.096,3.093    c0,1.711-1.383,3.093-3.096,3.093H355.454z M192.23,26.002c1.709,0,3.092,1.408,3.092,3.094c0,1.709-1.382,3.092-3.092,3.092    h-60.275v44.811c0,1.71-1.383,3.093-3.092,3.093c-1.713,0-3.096-1.383-3.096-3.093V29.096c0-1.686,1.383-3.094,3.096-3.094H192.23    z M71.981,472.696c-1.709,0-3.092-1.382-3.092-3.093c0-1.685,1.383-3.093,3.092-3.093h263.054c1.686,0,3.068,1.408,3.068,3.093    c0,1.711-1.383,3.093-3.068,3.093H71.981z M143.799,142.252h-42.447V423.26c0,5.834,2.39,11.14,6.236,14.986l0.126,0.151    c3.32,3.244,7.693,5.406,12.522,5.96h0.049h0.053h0.025h0.049h0.025h0.028h0.024l0.049,0.024h0.049h0.028    c0.653,0.025,1.281,0.075,1.934,0.102h0.025l0,0h0.053h0.049h0.049h0.028h0.049h0.049l0.252-0.026h0.024h0.253l0,0h0.277v-0.025    h0.249h0.024l0.253-0.024l0,0l0.252-0.025h0.025l0.249-0.024h0.028l0.225-0.025h0.025l0.228-0.025h0.049l0.229-0.024l0.024-0.025    l0.225-0.025h0.053l0.2-0.05h0.049l0.228-0.026l0.049-0.024l0.2-0.025l0.052-0.025l0.2-0.024l0.049-0.025l0.204-0.025l0.074-0.024    l0.175-0.051h0.077l0.175-0.051l0.074-0.025l0.179-0.024l0.074-0.025l0.175-0.05l0.077-0.025l0.176-0.05l0.074-0.025l0.179-0.025    l0.074-0.051l0.151-0.025l0.102-0.05l0.151-0.05l0.098-0.025l0.151-0.05l0.102-0.025l0.151-0.051l0.102-0.025l0.126-0.05    l0.098-0.051l0.151-0.05l0.102-0.025l0.126-0.075l0.123-0.025l0.126-0.05l0.102-0.051l0.126-0.05l0.126-0.05l0.099-0.052    l0.126-0.05l0.126-0.05l0.102-0.051l0.123-0.05l0.126-0.076l0.102-0.025l0.126-0.075l0.098-0.05l0.126-0.05l0.102-0.051    l0.126-0.076l0.098-0.05l0.151-0.075l0.077-0.05l0.126-0.076l0.099-0.025l0.126-0.101l0.078-0.024l0.151-0.101l0.074-0.025    l0.151-0.101l0.077-0.025l0.151-0.1l0.049-0.051l0.151-0.076l0.074-0.05l0.151-0.101l0.053-0.024l0.176-0.102l0.049-0.05    l0.151-0.101l0.053-0.025l0.151-0.126l0.049-0.025l0.175-0.1l0.025-0.051l0.175-0.101l0.028-0.051l0.176-0.125l0.024-0.025    l0.175-0.126l0.025-0.024l0.2-0.151l0.179-0.126l0.024-0.024l0.176-0.151h0.024v-0.025l0.379-0.302l0,0l0.551-0.503l0,0    l0.175-0.176h0.028l0.351-0.353l0.351-0.352v-0.025l0.175-0.176l0,0l0.176-0.176l0,0l0.179-0.201l0,0l0.151-0.176l0.025-0.025    l0.151-0.176l0,0l0.151-0.202h0.024l0.151-0.201l0,0l0.151-0.2l0,0l0.151-0.201l0.302-0.402h0.025l0.126-0.201h0.024l0.126-0.227    l0,0l0.151-0.202l0,0l0.151-0.2v-0.025l0.126-0.201l0,0l0.151-0.227l0,0l0.126-0.201l0,0l0.123-0.226l0,0l0.151-0.227l0,0    l0.102-0.227h0.025l0.102-0.227h0.024l0.102-0.227l0,0l0.123-0.226l0,0l0.126-0.227l0,0l0.102-0.227l0.126-0.227l0,0l0.099-0.251    l0.102-0.227l0,0l0.102-0.226v-0.025l0.099-0.227l0.102-0.227v-0.024l0.102-0.227l0.073-0.252l0,0l0.102-0.227v-0.024l0.074-0.227    l0,0l0.102-0.251l0.077-0.252l0.074-0.251l0.049-0.252l0.077-0.251l0.074-0.252l0.077-0.252l0.049-0.251l0.053-0.252l0.049-0.275    l0,0l0.049-0.252l0,0l0.077-0.251l0.024-0.277l0,0l0.049-0.251l0,0l0.024-0.276l0,0l0.053-0.252l0,0l0.024-0.276l0,0l0.025-0.252    l0,0l0.024-0.276l0,0l0.024-0.276l0,0l0.025-0.252l0,0l0.028-0.276l0,0v-0.277l0,0v-0.276l0,0l0.024-0.251v-0.025v-0.251l0,0    V142.252z" style="fill-rule:evenodd;clip-rule:evenodd;"/></g></g><g id="Layer_1"/></svg>